<?xml version="1.0" standalone="no"?>
<!DOCTYPE svg PUBLIC "-//W3C//DTD SVG 20010904//EN"
 "http://www.w3.org/TR/2001/REC-SVG-20010904/DTD/svg10.dtd">
<svg version="1.0" xmlns="http://www.w3.org/2000/svg"
 width="260.000000pt" height="260.000000pt" viewBox="0 0 260.000000 260.000000"
 preserveAspectRatio="xMidYMid meet">
<metadata>
Created by potrace 1.11, written by Peter Selinger 2001-2013
</metadata>
<g transform="translate(0.000000,260.000000) scale(0.100000,-0.100000)"
fill="#000000" stroke="none">
<path d="M1168 2335 c-2 -1 -39 -5 -83 -8 -44 -4 -91 -9 -105 -12 -14 -3 -48
-10 -76 -15 -98 -17 -260 -73 -379 -130 -274 -134 -447 -324 -490 -541 -11
-52 -5 -189 10 -255 27 -118 92 -299 149 -417 50 -104 125 -229 152 -252 6 -5
18 -20 26 -33 35 -53 232 -242 252 -242 4 0 17 -9 29 -21 30 -28 184 -130 227
-150 19 -9 64 -30 100 -46 114 -53 197 -76 289 -78 47 -2 96 1 108 6 13 5 34
11 46 13 60 13 115 29 144 42 17 8 38 14 47 14 9 0 16 4 16 9 0 5 20 17 44 26
25 10 55 28 67 41 12 13 27 24 32 24 27 0 290 238 382 345 52 60 146 208 184
289 35 74 97 240 106 284 2 9 13 55 25 102 11 47 23 123 27 169 5 75 10 91 46
150 35 58 40 74 43 136 2 78 -7 102 -57 153 -48 49 -104 74 -179 80 -54 4 -72
10 -105 37 -61 50 -241 155 -264 155 -6 0 -34 11 -63 24 -64 29 -191 62 -313
82 -73 12 -427 27 -437 19z"/>
</g>
</svg>
